# This file uses centimeters as units for non-parametric coordinates.

mtllib testCube.mtl
g default
v -1.532211 9.746049 2.360469
v 0.475146 7.513366 1.049923
v 0.748993 12.055588 1.919981
v 2.756350 9.822905 0.609435
v -0.475146 12.698273 -1.049923
v 1.532211 10.465589 -2.360469
v -2.756350 10.388734 -0.609435
v -0.748993 8.156050 -1.919981
vt 0.375000 0.000000
vt 0.625000 0.000000
vt 0.375000 0.250000
vt 0.625000 0.250000
vt 0.375000 0.500000
vt 0.625000 0.500000
vt 0.375000 0.750000
vt 0.625000 0.750000
vt 0.375000 1.000000
vt 0.625000 1.000000
vt 0.875000 0.000000
vt 0.875000 0.250000
vt 0.125000 0.000000
vt 0.125000 0.250000
vn 0.373674 -0.196182 0.906576
vn 0.373674 -0.196182 0.906576
vn 0.373674 -0.196182 0.906576
vn 0.373674 -0.196182 0.906576
vn 0.696347 0.704997 -0.134461
vn 0.696347 0.704997 -0.134461
vn 0.696347 0.704997 -0.134461
vn 0.696347 0.704997 -0.134461
vn -0.373674 0.196182 -0.906576
vn -0.373674 0.196182 -0.906576
vn -0.373674 0.196182 -0.906576
vn -0.373674 0.196182 -0.906576
vn -0.696347 -0.704997 0.134461
vn -0.696347 -0.704997 0.134461
vn -0.696347 -0.704997 0.134461
vn -0.696347 -0.704997 0.134461
vn 0.612755 -0.681536 -0.400050
vn 0.612755 -0.681536 -0.400050
vn 0.612755 -0.681536 -0.400050
vn 0.612755 -0.681536 -0.400050
vn -0.612755 0.681536 0.400050
vn -0.612755 0.681536 0.400050
vn -0.612755 0.681536 0.400050
vn -0.612755 0.681536 0.400050
g pCube3
usemtl initialShadingGroup
f 1/1/1 2/2/2 4/4/3 3/3/4
f 3/3/5 4/4/6 6/6/7 5/5/8
f 5/5/9 6/6/10 8/8/11 7/7/12
f 7/7/13 8/8/14 2/10/15 1/9/16
f 2/2/17 8/11/18 6/12/19 4/4/20
f 7/13/21 1/1/22 3/3/23 5/14/24
